<?xml version="1.0" encoding="UTF-8"?>
<svg width="150px" height="149px" viewBox="0 0 150 149" version="1.1" xmlns="http://www.w3.org/2000/svg" xmlns:xlink="http://www.w3.org/1999/xlink">
    <defs></defs>
    <g id="05" stroke="none" stroke-width="1" fill="none" fill-rule="evenodd" transform="translate(-645.000000, -358.000000)">
        <path d="M666.899559,379.814544 C637.698971,408.87502 637.698971,456.152067 666.906618,485.210788 C696.100147,514.264241 743.623677,514.264241 772.8225,485.203764 C802.030147,456.152067 802.023088,408.87502 772.829559,379.821567 C743.623677,350.76109 696.100147,350.76109 666.899559,379.814544 Z M764.653677,477.076102 C739.961912,501.65223 699.767206,501.65223 675.075441,477.083125 C650.369559,452.508753 650.376618,412.516578 675.075441,387.942206 C699.767206,363.374857 739.954853,363.374857 764.660735,387.94923 C789.359559,412.516578 789.354265,452.508753 764.653677,477.076102 Z M753.728382,461.967323 C754.653088,464.10766 753.666618,466.590381 751.5225,467.508671 C749.371324,468.435741 746.883088,467.454241 745.953088,465.313904 C741.864265,455.918544 732.214853,449.848695 721.356618,449.848695 C710.251324,449.848695 700.538382,455.918544 696.624265,465.306881 C695.941324,466.925741 694.368971,467.907241 692.708382,467.907241 C692.163088,467.907241 691.619559,467.803648 691.088382,467.584171 C688.923088,466.686951 687.903088,464.223544 688.799559,462.077939 C694.038971,449.525625 706.818971,441.419032 721.363677,441.419032 C735.599559,441.419032 748.303677,449.485241 753.728382,461.967323 Z M686.835441,410.932834 C685.877206,409.278857 686.448971,407.173637 688.109559,406.227253 L700.884265,398.93009 C702.544853,397.983706 704.660735,398.55259 705.611912,400.204811 C706.570147,401.851764 705.998382,403.964009 704.337794,404.910392 L691.564853,412.207555 C689.9025,413.153939 687.786618,412.585055 686.835441,410.932834 Z M706.646029,411.083834 C709.031912,413.455939 709.031912,417.304683 706.646029,419.669764 C704.261912,422.043625 700.400735,422.043625 698.009559,419.669764 C695.630735,417.29766 695.630735,413.448916 698.009559,411.083834 C700.393677,408.709974 704.261912,408.709974 706.646029,411.083834 Z M727.4025,390.458288 C727.575441,388.558497 729.257206,387.160869 731.159559,387.331183 L745.829559,388.64102 C747.738971,388.81309 749.143677,390.486381 748.9725,392.386171 C748.799559,394.285962 747.117794,395.685346 745.208382,395.513276 L730.545441,394.196416 C728.636029,394.033125 727.229559,392.352811 727.4025,390.458288 Z M743.064265,410.980241 C745.443088,413.354102 745.443088,417.20109 743.064265,419.567927 C740.673088,421.940032 736.804853,421.940032 734.427794,419.573195 C732.041912,417.20109 732.041912,413.354102 734.427794,410.980241 C736.811912,408.606381 740.673088,408.606381 743.064265,410.980241 Z" id="sad-rounded-square-emoticon" fill="#B0B0B0"></path>
    </g>
</svg>